<svg width="23" height="23" viewBox="0 0 23 23" fill="none" xmlns="http://www.w3.org/2000/svg">
<g clip-path="url(#clip0_7_228)">
<path d="M5.1111 12.1389V7.02777H3.19444C2.68611 7.02777 2.19859 7.2297 1.83915 7.58915C1.47971 7.94859 1.27777 8.43611 1.27777 8.94444V20.4444C1.27872 20.5631 1.3127 20.6791 1.37589 20.7796C1.43908 20.88 1.52899 20.9608 1.63555 21.013C1.7382 21.0597 1.85139 21.0784 1.9636 21.0672C2.07582 21.056 2.18306 21.0152 2.27444 20.9492L5.56472 18.5278H14.1514C14.3935 18.5349 14.6346 18.4923 14.8596 18.4025C15.0846 18.3127 15.2887 18.1777 15.4594 18.0058C15.6301 17.8339 15.7637 17.6288 15.8519 17.4032C15.9401 17.1776 15.9811 16.9362 15.9722 16.6942V15.9722H8.94444C7.92777 15.9722 6.95275 15.5683 6.23386 14.8495C5.51497 14.1306 5.1111 13.1555 5.1111 12.1389Z" fill="#F7F6F4"/>
<path d="M19.8055 2.55554H8.94444C8.43611 2.55554 7.94859 2.75748 7.58915 3.11692C7.2297 3.47637 7.02777 3.96388 7.02777 4.47221V12.1389C7.02777 12.6472 7.2297 13.1347 7.58915 13.4942C7.94859 13.8536 8.43611 14.0555 8.94444 14.0555H17.6014L20.6553 16.4258C20.7461 16.4929 20.853 16.5348 20.9652 16.5472C21.0775 16.5595 21.191 16.5419 21.2942 16.4961C21.4029 16.4443 21.4948 16.3629 21.5592 16.2611C21.6236 16.1594 21.658 16.0415 21.6583 15.9211V4.47221C21.6586 3.97476 21.4655 3.49668 21.1197 3.13902C20.774 2.78135 20.3027 2.57212 19.8055 2.55554Z" fill="#F7F6F4"/>
</g>
<defs>
<clipPath id="clip0_7_228">
<rect width="23" height="23" fill="white"/>
</clipPath>
</defs>
</svg>
