<svg width="20" height="20" viewBox="0 0 20 20" fill="none" xmlns="http://www.w3.org/2000/svg">
<path d="M10 1.66663C5.39167 1.66663 1.66667 5.39163 1.66667 9.99996C1.66667 14.6083 5.39167 18.3333 10 18.3333C14.6083 18.3333 18.3333 14.6083 18.3333 9.99996C18.3333 5.39163 14.6083 1.66663 10 1.66663ZM10 16.6666C6.325 16.6666 3.33333 13.675 3.33333 9.99996C3.33333 6.32496 6.325 3.33329 10 3.33329C13.675 3.33329 16.6667 6.32496 16.6667 9.99996C16.6667 13.675 13.675 16.6666 10 16.6666ZM12.9917 5.83329L10 8.82496L7.00833 5.83329L5.83333 7.00829L8.825 9.99996L5.83333 12.9916L7.00833 14.1666L10 11.175L12.9917 14.1666L14.1667 12.9916L11.175 9.99996L14.1667 7.00829L12.9917 5.83329Z" fill="#B0B0B0"/>
</svg>
