<svg width="20" height="20" viewBox="0 0 20 20" fill="none" xmlns="http://www.w3.org/2000/svg">
<g clip-path="url(#clip0_364_318)">
<path d="M17.9083 1.83019C15.1213 -0.610064 10.5828 -0.610064 7.79883 1.83019L0.0769505 8.58623C0.0266547 8.63027 2.73517e-05 8.68985 2.73517e-05 8.75202C2.73517e-05 8.8142 0.0266547 8.87378 0.0769505 8.91782L1.16866 9.87371C1.21857 9.91722 1.28612 9.94164 1.35653 9.94164C1.42695 9.94164 1.4945 9.91722 1.5444 9.87371L9.26628 3.11767C10.2249 2.27835 11.5 1.81724 12.855 1.81724C14.2101 1.81724 15.4852 2.27835 16.4408 3.11767C17.3994 3.957 17.926 5.07351 17.926 6.25737C17.926 7.44382 17.3994 8.55774 16.4408 9.39706L8.57102 16.2852L7.29587 17.4017C6.10357 18.4457 4.1657 18.4457 2.97339 17.4017C2.39647 16.8966 2.07991 16.2256 2.07991 15.5107C2.07991 14.7957 2.39647 14.1247 2.97339 13.6196L10.7811 6.78583C10.9793 6.61486 11.2397 6.51901 11.5178 6.51901H11.5207C11.7988 6.51901 12.0562 6.61486 12.2515 6.78583C12.4497 6.95939 12.5562 7.18736 12.5562 7.43087C12.5562 7.67178 12.4467 7.89975 12.2515 8.07072L5.86984 13.6533C5.81954 13.6973 5.79292 13.7569 5.79292 13.8191C5.79292 13.8812 5.81954 13.9408 5.86984 13.9848L6.96155 14.9407C7.01145 14.9842 7.07901 15.0087 7.14942 15.0087C7.21984 15.0087 7.28739 14.9842 7.33729 14.9407L13.716 9.35561C14.3047 8.8401 14.6272 8.15621 14.6272 7.42828C14.6272 6.70034 14.3018 6.01386 13.716 5.50094C12.5 4.43624 10.5237 4.43883 9.3077 5.50094L8.55031 6.1667L1.50298 12.3347C1.02467 12.751 0.645525 13.2464 0.387528 13.792C0.12953 14.3377 -0.00218246 14.9227 2.73517e-05 15.5132C2.73517e-05 16.7126 0.535529 17.8395 1.50298 18.6866C2.50594 19.5622 3.81955 20 5.13315 20C6.44676 20 7.76037 19.5622 8.76037 18.6866L17.9083 10.6819C19.2544 9.50068 20 7.92824 20 6.25737C20.0029 4.5839 19.2574 3.01146 17.9083 1.83019Z" fill="#505EA8"/>
</g>
<defs>
<clipPath id="clip0_364_318">
<rect width="20" height="20" fill="white"/>
</clipPath>
</defs>
</svg>
