<svg width="13" height="13" viewBox="0 0 13 13" fill="none" xmlns="http://www.w3.org/2000/svg">
<path d="M0.945833 12.0542C1.18264 12.291 1.48403 12.4094 1.85 12.4094C2.21597 12.4094 2.51736 12.291 2.75417 12.0542L6.5 8.30833L10.2781 12.0865C10.5149 12.3233 10.8112 12.4361 11.1668 12.4249C11.5216 12.4145 11.8174 12.291 12.0542 12.0542C12.291 11.8174 12.4094 11.516 12.4094 11.15C12.4094 10.784 12.291 10.4826 12.0542 10.2458L8.30833 6.5L12.0865 2.72187C12.3233 2.48506 12.4361 2.18884 12.4249 1.8332C12.4145 1.47843 12.291 1.18263 12.0542 0.945829C11.8174 0.709023 11.516 0.590621 11.15 0.590621C10.784 0.590621 10.4826 0.709023 10.2458 0.945829L6.5 4.69166L2.72187 0.913538C2.48507 0.676732 2.18928 0.563496 1.8345 0.573829C1.47886 0.585024 1.18264 0.709023 0.945833 0.945829C0.709028 1.18263 0.590626 1.48402 0.590626 1.85C0.590626 2.21597 0.709028 2.51736 0.945833 2.75416L4.69167 6.5L0.913542 10.2781C0.676737 10.5149 0.563931 10.8107 0.575125 11.1655C0.585459 11.5211 0.709028 11.8174 0.945833 12.0542Z" fill="#505EA8"/>
</svg>
