<svg width="30" height="31" viewBox="0 0 30 31" fill="none" xmlns="http://www.w3.org/2000/svg">
<path d="M15 20.6667C17.7614 20.6667 20 18.3535 20 15.5C20 12.6465 17.7614 10.3333 15 10.3333C12.2386 10.3333 10 12.6465 10 15.5C10 18.3535 12.2386 20.6667 15 20.6667Z" fill="#505EA8"/>
<path d="M16.25 5.2558V2.58334H13.75V5.2558C11.5504 5.54602 9.50621 6.58257 7.93821 8.20283C6.37021 9.8231 5.3671 11.9354 5.08625 14.2083H2.5V16.7917H5.08625C5.36669 19.0648 6.36967 21.1773 7.93775 22.7977C9.50582 24.418 11.5502 25.4544 13.75 25.7442V28.4167H16.25V25.7442C18.4499 25.4546 20.4944 24.4183 22.0625 22.7979C23.6306 21.1775 24.6335 19.0649 24.9137 16.7917H27.5V14.2083H24.9137C24.6333 11.9352 23.6303 9.82269 22.0623 8.20235C20.4942 6.582 18.4498 5.54559 16.25 5.2558ZM15 23.25C10.8638 23.25 7.5 19.7741 7.5 15.5C7.5 11.2259 10.8638 7.75001 15 7.75001C19.1362 7.75001 22.5 11.2259 22.5 15.5C22.5 19.7741 19.1362 23.25 15 23.25Z" fill="#505EA8"/>
</svg>
