<svg width="24" height="24" viewBox="0 0 24 24" fill="none" xmlns="http://www.w3.org/2000/svg">
<mask id="mask0_422_315" style="mask-type:alpha" maskUnits="userSpaceOnUse" x="3" y="0" width="18" height="24">
<path d="M7.49999 10.306C6.78799 13.381 10.7465 14.1635 9.81199 16.33C8.87699 18.496 6.78449 18.063 7.01799 20.229C7.25199 22.3955 10.021 22.426 12.542 21.121C17.5835 18.5105 18.6355 12.8085 16.354 10.306C13.55 7.23101 8.21199 7.23101 7.49999 10.306Z" fill="white" stroke="white" stroke-width="3"/>
<path d="M16.3033 7.91657C16.7264 8.27157 17.501 8.0449 18.0335 7.41029C18.566 6.77568 18.6548 5.97344 18.2317 5.61843C17.8086 5.26343 17.034 5.4901 16.5015 6.12471C15.969 6.75933 15.8802 7.56157 16.3033 7.91657Z" fill="white"/>
<path d="M14.0565 6.66118C14.5571 6.89459 15.2467 6.47515 15.5968 5.72434C15.9469 4.97353 15.8249 4.17566 15.3244 3.94226C14.8239 3.70885 14.1343 4.12829 13.7842 4.8791C13.4341 5.62991 13.556 6.42777 14.0565 6.66118Z" fill="white"/>
<path d="M11.5337 6.29334C12.083 6.35107 12.5984 5.72997 12.685 4.90609C12.7716 4.0822 12.3966 3.3675 11.8473 3.30977C11.298 3.25204 10.7826 3.87314 10.696 4.69703C10.6094 5.52092 10.9845 6.23561 11.5337 6.29334Z" fill="white"/>
<path d="M7.68405 5.87939C8.46252 5.59605 8.78734 4.52493 8.40955 3.48698C8.03177 2.44902 7.09444 1.83728 6.31597 2.12062C5.53751 2.40396 5.21269 3.47508 5.59047 4.51304C5.96826 5.55099 6.90559 6.16273 7.68405 5.87939Z" fill="white" stroke="white" stroke-width="3"/>
<path d="M18.1185 9.73219C18.4735 10.1553 19.2757 10.0666 19.9103 9.53405C20.5449 9.00155 20.7716 8.2269 20.4166 7.80383C20.0616 7.38075 19.2593 7.46946 18.6247 8.00196C17.9901 8.53446 17.7635 9.30911 18.1185 9.73219Z" fill="white"/>
</mask>
<g mask="url(#mask0_422_315)">
<path d="M0 0H24V24H0V0Z" fill="white"/>
</g>
</svg>
