<svg width="24" height="24" viewBox="0 0 24 24" fill="none" xmlns="http://www.w3.org/2000/svg">
<path d="M18.0107 21.7432C18.0061 21.5451 17.9232 21.3569 17.7803 21.2197L8.56055 12L17.7803 2.78029C17.8523 2.71038 17.9095 2.62673 17.9486 2.53431C17.9877 2.44188 18.0078 2.34255 18.0078 2.2422C18.0078 2.09294 17.9632 1.94709 17.8798 1.8233C17.7964 1.69951 17.678 1.60341 17.5397 1.54731C17.4014 1.49121 17.2494 1.47765 17.1034 1.50837C16.9573 1.53908 16.8237 1.61268 16.7197 1.71974L6.96973 11.4697C6.82913 11.6104 6.75015 11.8011 6.75015 12C6.75015 12.1989 6.82913 12.3896 6.96973 12.5303L16.7197 22.2803C16.8244 22.3894 16.9596 22.4642 17.1076 22.4951C17.2556 22.526 17.4094 22.5115 17.549 22.4534C17.6886 22.3954 17.8073 22.2965 17.8897 22.1697C17.9721 22.043 18.0143 21.8943 18.0107 21.7432Z" fill="#505EA8"/>
</svg>
