<svg width="30" height="30" viewBox="0 0 30 30" fill="none" xmlns="http://www.w3.org/2000/svg">
<path d="M18.4425 13.75C19.65 13.75 20.63 14.73 20.63 15.9375V20H20.625V21.25H9.375V17.5H9.3775V15.9375C9.3775 14.73 10.3562 13.75 11.565 13.75H18.4425ZM27.5 15.9375C27.5 15.3573 27.2695 14.8009 26.8593 14.3907C26.4491 13.9805 25.8927 13.75 25.3125 13.75H21.0938C21.585 14.3438 21.88 15.1062 21.88 15.9375V17.5H21.875V21.25H26.5625C26.8111 21.25 27.0496 21.1512 27.2254 20.9754C27.4012 20.7996 27.5 20.5611 27.5 20.3125V15.9375ZM8.125 20H8.1275V15.9375L8.13875 15.6625C8.19271 14.9601 8.46352 14.2918 8.91375 13.75H4.6875L4.5075 13.7575C3.96037 13.8027 3.45024 14.0519 3.07835 14.4558C2.70646 14.8596 2.50002 15.3885 2.5 15.9375V20.3125C2.5 20.83 2.92 21.25 3.4375 21.25H8.125V20ZM15 5C15.9946 5 16.9484 5.39509 17.6517 6.09835C18.3549 6.80161 18.75 7.75544 18.75 8.75C18.75 9.74456 18.3549 10.6984 17.6517 11.4017C16.9484 12.1049 15.9946 12.5 15 12.5C14.0054 12.5 13.0516 12.1049 12.3483 11.4017C11.6451 10.6984 11.25 9.74456 11.25 8.75C11.25 7.75544 11.6451 6.80161 12.3483 6.09835C13.0516 5.39509 14.0054 5 15 5ZM23.125 6.25C23.9538 6.25 24.7487 6.57924 25.3347 7.16529C25.9208 7.75134 26.25 8.5462 26.25 9.375C26.25 10.2038 25.9208 10.9987 25.3347 11.5847C24.7487 12.1708 23.9538 12.5 23.125 12.5C22.2962 12.5 21.5013 12.1708 20.9153 11.5847C20.3292 10.9987 20 10.2038 20 9.375C20 8.5462 20.3292 7.75134 20.9153 7.16529C21.5013 6.57924 22.2962 6.25 23.125 6.25ZM6.875 6.25C7.7038 6.25 8.49866 6.57924 9.08471 7.16529C9.67076 7.75134 10 8.5462 10 9.375C10 10.2038 9.67076 10.9987 9.08471 11.5847C8.49866 12.1708 7.7038 12.5 6.875 12.5C6.0462 12.5 5.25134 12.1708 4.66529 11.5847C4.07924 10.9987 3.75 10.2038 3.75 9.375C3.75 8.5462 4.07924 7.75134 4.66529 7.16529C5.25134 6.57924 6.0462 6.25 6.875 6.25Z" fill="black"/>
</svg>
