<svg width="28" height="28" viewBox="0 0 28 28" fill="none" xmlns="http://www.w3.org/2000/svg">
<path d="M25.0215 7.1225L18.0215 3.6225C17.8594 3.54139 17.6807 3.49916 17.4994 3.49916C17.3182 3.49916 17.1394 3.54139 16.9773 3.6225L10.5 6.86233L4.02151 3.6225C3.8436 3.5336 3.64591 3.49165 3.44723 3.50065C3.24854 3.50965 3.05546 3.56929 2.88631 3.67391C2.71716 3.77853 2.57757 3.92466 2.48079 4.09841C2.38401 4.27217 2.33325 4.46778 2.33334 4.66667V19.8333C2.33334 20.2755 2.58301 20.6792 2.97851 20.8775L9.97851 24.3775C10.1406 24.4586 10.3193 24.5008 10.5006 24.5008C10.6818 24.5008 10.8606 24.4586 11.0227 24.3775L17.5 21.1377L23.9785 24.3763C24.1559 24.4661 24.3535 24.5086 24.5521 24.4998C24.7507 24.491 24.9437 24.4312 25.1125 24.3262C25.4567 24.1127 25.6667 23.7382 25.6667 23.3333V8.16667C25.6667 7.7245 25.417 7.32083 25.0215 7.1225ZM11.6667 8.88767L16.3333 6.55433V19.1123L11.6667 21.4457V8.88767ZM4.66668 6.55433L9.33334 8.88767V21.4457L4.66668 19.1123V6.55433ZM23.3333 21.4457L18.6667 19.1123V6.55433L23.3333 8.88767V21.4457Z" fill="#505EA8"/>
</svg>
