<svg width="24" height="24" viewBox="0 0 24 24" fill="none" xmlns="http://www.w3.org/2000/svg">
<path d="M12.815 12.1971L5.28299 13.4521C5.19639 13.4665 5.11513 13.5035 5.04737 13.5593C4.97961 13.6151 4.92775 13.6878 4.89699 13.7701L2.29999 20.7281C2.05199 21.368 2.72099 21.9781 3.33499 21.67L21.335 12.6701C21.4594 12.6077 21.564 12.512 21.6371 12.3935C21.7102 12.2751 21.7489 12.1387 21.7489 11.9996C21.7489 11.8604 21.7102 11.724 21.6371 11.6056C21.564 11.4871 21.4594 11.3914 21.335 11.3291L3.33499 2.32905C2.72099 2.02205 2.05199 2.63205 2.29999 3.27105L4.89799 10.2291C4.92875 10.3113 4.98061 10.384 5.04837 10.4398C5.11613 10.4956 5.19739 10.5326 5.28399 10.5471L12.816 11.8021C12.863 11.8096 12.9057 11.8336 12.9366 11.8698C12.9675 11.906 12.9845 11.952 12.9845 11.9996C12.9845 12.0471 12.9675 12.0932 12.9366 12.1293C12.9057 12.1655 12.863 12.1896 12.816 12.1971H12.815Z" fill="#505EA8"/>
</svg>
